<?xml version="1.0" standalone="no"?>
<!DOCTYPE svg PUBLIC "-//W3C//DTD SVG 20010904//EN"
 "http://www.w3.org/TR/2001/REC-SVG-20010904/DTD/svg10.dtd">
<svg version="1.0" xmlns="http://www.w3.org/2000/svg"
 width="1952.000000pt" height="544.000000pt" viewBox="0 0 1952.000000 544.000000"
 preserveAspectRatio="xMidYMid meet">

<g transform="translate(0.000000,544.000000) scale(0.100000,-0.100000)"
fill="#000000" stroke="none">
<path d="M2540 5123 c-582 -59 -1132 -319 -1544 -728 -902 -896 -1006 -2289
-246 -3300 347 -462 867 -810 1421 -950 229 -58 332 -70 639 -69 264 0 296 2
430 26 506 93 949 320 1329 683 319 305 578 749 686 1175 147 581 88 1191
-165 1718 -129 267 -271 471 -473 679 -305 314 -642 524 -1054 657 -259 83
-492 117 -788 114 -110 0 -216 -3 -235 -5z m361 -172 c19 -16 22 -22 11 -32
-10 -10 -19 -11 -43 -2 -40 15 -76 2 -90 -34 -14 -36 -4 -69 26 -89 36 -24 59
-15 65 26 3 22 11 36 21 38 13 2 18 -7 21 -44 3 -37 0 -49 -17 -60 -29 -21
-98 -18 -128 6 -56 44 -56 146 0 189 34 27 102 28 134 2z m-344 -13 c33 -16
56 -73 50 -120 -14 -108 -154 -132 -200 -35 -54 112 40 209 150 155z m548 8
c94 -40 81 -196 -18 -220 -105 -27 -176 100 -105 189 35 44 69 53 123 31z
m158 -28 c9 -7 29 -44 45 -82 28 -65 30 -67 36 -40 24 99 26 102 47 97 23 -6
22 -23 -10 -148 -14 -56 -21 -71 -38 -73 -17 -2 -25 10 -49 73 -31 81 -33 81
-54 -2 -8 -32 -16 -43 -30 -43 -12 0 -20 7 -20 18 0 29 43 212 50 212 3 0 14
-6 23 -12z m-929 -15 c9 -29 45 -197 43 -199 -6 -5 -47 -15 -47 -12 0 7 -41
193 -46 211 -4 13 0 17 20 17 15 0 27 -7 30 -17z m-105 -22 c23 -15 5 -44 -24
-37 -13 3 -35 1 -50 -6 -70 -32 -21 -151 54 -131 20 5 23 10 18 44 -5 36 -3
39 18 39 20 0 25 -6 31 -46 5 -37 3 -47 -12 -59 -70 -53 -145 -33 -178 46 -23
56 -17 90 24 130 21 22 38 29 67 29 21 0 44 -4 52 -9z m1317 -34 c41 -14 70
-30 72 -39 2 -10 -26 -37 -74 -72 l-78 -55 35 -14 c19 -8 42 -17 51 -20 12 -4
16 -13 12 -24 -3 -10 31 19 76 65 71 73 86 83 108 77 l25 -6 -7 -91 c-3 -50
-6 -106 -6 -124 0 -27 -3 -31 -20 -27 -20 5 -22 10 -24 46 -1 11 -18 25 -43
37 -42 18 -43 18 -56 0 -12 -18 -17 -17 -111 16 -54 19 -102 36 -107 39 -17
11 5 36 73 86 39 28 66 54 62 59 -5 4 -25 13 -45 19 -29 9 -36 16 -32 31 7 25
5 25 89 -3z m-1533 -28 c5 -17 -3 -24 -39 -39 -45 -20 -50 -26 -35 -48 7 -11
15 -11 46 2 46 20 42 20 48 -4 4 -17 -2 -24 -34 -36 -43 -18 -43 -18 -29 -45
10 -18 12 -18 59 0 49 18 49 18 55 -2 3 -12 4 -21 3 -22 -1 0 -27 -11 -57 -22
-30 -12 -61 -23 -68 -25 -8 -2 -28 35 -52 97 -22 55 -40 103 -40 107 0 5 112
54 131 57 4 1 9 -8 12 -20z m-230 -174 c20 -41 41 -75 47 -75 5 0 25 8 45 17
31 15 37 15 45 3 6 -8 10 -17 10 -20 0 -7 -131 -72 -135 -68 -1 2 -23 48 -49
102 -35 76 -43 102 -34 108 25 15 34 7 71 -67z m2214 -7 c26 -24 31 -58 8 -58
-8 0 -26 12 -40 26 -20 20 -32 24 -53 20 -35 -9 -62 -41 -62 -75 0 -32 8 -44
38 -60 20 -11 24 -9 40 18 19 35 25 37 41 17 9 -11 7 -22 -9 -49 -26 -44 -42
-50 -84 -33 -86 36 -101 129 -31 198 42 43 104 41 152 -4z m-2336 -3 c60 -32
88 -123 53 -173 -43 -62 -122 -65 -173 -6 -54 61 -38 149 33 180 40 17 51 17
87 -1z m1404 -71 c1045 -142 1821 -1107 1726 -2149 -53 -576 -333 -1076 -799
-1427 -252 -191 -538 -315 -862 -375 -135 -25 -515 -25 -650 0 -445 84 -807
268 -1104 564 -238 237 -405 509 -505 824 -150 475 -110 989 114 1454 187 387
519 722 913 919 365 182 754 246 1167 190z m1099 -36 c7 -11 4 -38 -8 -90 -36
-152 -35 -149 -56 -138 -15 8 -18 17 -14 39 5 24 1 31 -31 51 -32 20 -39 21
-61 9 -21 -11 -27 -10 -39 2 -13 13 -4 23 82 82 54 37 102 66 107 64 5 -2 14
-10 20 -19z m-2704 -23 c0 -21 -5 -25 -28 -25 -37 0 -52 -17 -52 -57 0 -41 30
-73 69 -73 29 0 61 22 61 41 0 5 9 9 20 9 32 0 26 -44 -11 -74 -93 -78 -230
34 -178 147 14 30 56 56 92 57 22 0 27 -4 27 -25z m-579 -2969 c20 -33 22 -67
3 -73 -6 -2 -15 11 -20 29 -6 19 -17 34 -28 36 -16 3 -17 -2 -11 -50 8 -62 -5
-82 -52 -76 -22 2 -33 13 -51 50 -13 26 -21 52 -17 58 13 21 32 9 41 -27 6
-24 16 -39 27 -41 17 -3 18 2 11 57 -6 57 -5 61 17 69 34 13 59 3 80 -32z
m3943 -47 c30 -35 33 -69 9 -109 -33 -56 -99 -66 -144 -21 -61 62 -19 161 69
161 33 0 45 -6 66 -31z m-3858 -93 c32 -48 38 -76 16 -76 -4 0 -17 16 -30 35
-12 19 -27 35 -32 35 -21 0 -21 -30 -1 -58 11 -16 18 -32 14 -36 -13 -13 -29
-5 -46 24 -16 26 -21 29 -38 19 -20 -10 -20 -11 6 -45 25 -32 28 -73 5 -59
-14 9 -70 92 -70 103 0 8 123 107 137 111 2 1 19 -23 39 -53z m3667 -127 l51
-40 26 30 c25 31 50 41 50 20 0 -6 -16 -33 -36 -60 l-35 -49 -70 56 c-68 56
-75 64 -62 77 12 13 25 7 76 -34z m-3597 18 c3 -8 -4 -35 -16 -61 -11 -26 -20
-50 -20 -52 0 -3 32 -2 70 2 92 9 93 -7 3 -81 -61 -50 -69 -54 -80 -39 -10 14
-7 21 25 46 20 16 39 32 41 34 3 3 -21 2 -52 -2 l-57 -7 15 43 c8 24 13 45 11
47 -2 2 -18 -8 -35 -23 -28 -24 -34 -25 -47 -12 -13 12 -6 21 48 65 66 54 85
62 94 40z m3571 -106 c47 -39 60 -71 31 -71 -12 0 -138 100 -138 110 0 3 5 11
12 18 13 13 11 14 95 -57z m-111 -2 c3 -6 -8 -25 -25 -43 -26 -27 -29 -35 -18
-44 11 -9 19 -6 37 13 26 27 50 33 50 12 0 -8 -9 -22 -20 -32 -22 -20 -26 -40
-8 -51 6 -4 23 6 40 25 18 20 35 30 44 27 20 -7 7 -30 -43 -78 l-39 -38 -64
65 -64 65 44 45 c47 47 55 52 66 34z m-3282 -89 c40 -44 46 -82 19 -112 -23
-25 -66 -23 -101 7 -26 22 -30 23 -45 8 -13 -14 -19 -14 -32 -3 -14 12 -9 20
47 77 34 35 65 63 69 63 4 0 23 -18 43 -40z m3206 -82 c47 -59 49 -76 14 -117
-40 -48 -78 -43 -139 19 -42 42 -46 51 -35 65 12 14 18 11 60 -30 49 -48 74
-54 93 -23 9 14 3 26 -31 67 -44 52 -50 66 -29 74 17 6 23 1 67 -55z m-3065
-49 c36 -34 43 -44 34 -56 -10 -12 -18 -9 -45 18 -30 29 -54 32 -54 6 0 -6 12
-21 28 -33 21 -18 24 -25 15 -35 -10 -10 -18 -8 -37 10 -24 22 -56 23 -56 2 0
-5 16 -23 36 -39 34 -28 39 -53 11 -52 -7 1 -33 20 -59 43 l-47 42 57 68 c31
37 60 67 64 67 5 0 29 -19 53 -41z m2888 -33 c3 -8 3 -48 0 -87 l-6 -73 43 32
c42 30 60 33 60 9 -1 -7 -26 -31 -58 -54 -75 -55 -87 -47 -78 55 6 78 4 80
-42 39 -18 -17 -25 -18 -35 -8 -10 10 -2 21 38 57 53 46 70 53 78 30z m-2766
-63 c19 -15 39 -37 44 -50 13 -34 -6 -73 -41 -86 -24 -9 -30 -17 -30 -40 0
-22 -4 -28 -16 -23 -9 3 -18 6 -20 6 -2 0 -4 18 -4 40 0 45 -25 66 -42 37 -10
-19 -33 -22 -43 -7 -7 11 92 150 106 150 6 0 26 -12 46 -27z m2598 -78 c-24
-21 -32 -34 -26 -44 7 -11 15 -10 44 8 50 30 62 8 16 -30 -26 -21 -31 -31 -23
-39 9 -9 22 -6 52 12 30 17 44 20 52 12 10 -10 -33 -48 -97 -87 -7 -5 -28 19
-57 66 -25 41 -46 77 -46 80 0 4 23 22 52 42 38 25 54 31 60 22 5 -8 -4 -23
-27 -42z m-2404 -54 l23 -18 -44 -74 c-23 -41 -44 -75 -45 -77 -5 -7 -35 11
-35 22 0 6 16 36 35 66 23 36 32 57 25 64 -15 15 -12 36 4 36 8 0 24 -8 37
-19z m2328 -67 c54 -94 48 -107 -37 -76 -32 12 -62 22 -66 22 -3 0 3 -18 14
-40 11 -23 18 -45 15 -50 -10 -16 -33 -11 -39 8 -4 10 -22 44 -40 75 -29 47
-32 58 -20 68 11 9 26 6 69 -11 31 -12 58 -20 61 -18 3 3 -5 22 -17 43 -18 31
-20 38 -8 46 8 5 16 9 19 9 3 0 25 -34 49 -76z m-2207 2 c62 -47 15 -166 -66
-166 -43 0 -87 33 -68 51 9 10 15 10 24 1 15 -15 64 -16 73 -2 3 6 -1 10 -10
10 -9 0 -27 11 -41 25 -25 26 -26 52 -2 83 13 16 68 15 90 -2z m2005 -42 c2
-6 -15 -19 -37 -29 -37 -17 -49 -33 -34 -47 3 -4 22 0 41 9 44 18 66 3 32 -21
-13 -9 -29 -16 -36 -16 -14 0 -16 -10 -7 -34 5 -14 11 -13 45 4 45 24 59 25
59 6 0 -12 -98 -66 -120 -66 -7 0 -70 135 -70 151 0 12 92 59 109 56 8 -1 16
-7 18 -13z m-1849 -34 c35 -22 43 -58 18 -83 -8 -8 -13 -23 -10 -33 14 -55
-74 -79 -122 -33 -32 30 -31 89 2 89 9 0 14 11 14 30 0 50 43 63 98 30z m1702
-42 c0 -18 -3 -63 -6 -100 -9 -95 -26 -96 -109 -3 -61 69 -64 74 -44 80 18 6
30 -2 64 -41 l42 -48 6 33 c4 19 7 48 7 66 0 35 6 45 27 45 8 0 13 -12 13 -32z
m-1530 -28 c27 -27 27 -98 0 -133 -56 -71 -153 -24 -136 66 14 75 90 113 136
67z m507 -98 c10 -6 10 -28 3 -92 -5 -47 -10 -86 -10 -87 0 -2 -10 -3 -21 -3
-21 0 -21 3 -15 75 6 63 4 76 -9 81 -8 3 -15 12 -15 20 0 15 46 19 67 6z m447
-29 c19 -133 19 -143 -2 -143 -23 0 -32 18 -32 63 0 49 -10 75 -31 80 -40 11
-17 33 38 36 17 1 22 -6 27 -36z m-289 2 c37 -36 35 -97 -4 -136 -30 -29 -72
-38 -100 -20 -22 14 -3 31 34 31 24 0 38 6 45 19 9 18 7 19 -24 14 -26 -4 -39
0 -55 16 -26 26 -26 41 0 75 27 34 71 35 104 1z m175 5 c22 -22 26 -45 9 -55
-7 -5 -5 -13 7 -26 48 -53 -51 -118 -114 -73 -23 16 -30 58 -11 70 8 4 8 9 0
17 -18 18 -12 55 11 71 31 22 74 20 98 -4z m-580 -30 c0 -25 -30 -41 -53 -29
-39 22 -4 79 35 58 10 -5 18 -18 18 -29z m957 24 c8 -22 -10 -49 -32 -49 -22
0 -40 27 -32 49 8 21 56 21 64 0z"/>
<path d="M2460 4890 c-40 -40 -14 -120 39 -120 36 0 61 28 61 68 0 36 -30 72
-60 72 -11 0 -29 -9 -40 -20z"/>
<path d="M3026 4894 c-44 -43 -25 -117 31 -122 38 -4 63 26 63 75 0 52 -60 82
-94 47z"/>
<path d="M3696 4681 c-27 -29 -28 -29 -8 -40 29 -16 29 -15 34 29 2 22 3 40 3
40 -1 0 -14 -13 -29 -29z"/>
<path d="M1574 4575 c-19 -19 -23 -31 -18 -48 10 -34 45 -67 70 -67 55 0 73
72 29 115 -31 32 -50 31 -81 0z"/>
<path d="M2590 4207 c0 -52 48 -113 126 -164 l69 -45 -62 5 c-74 6 -149 39
-217 96 -59 50 -42 52 44 5 121 -67 175 -94 190 -94 31 0 -245 150 -287 156
-46 7 -113 -18 -122 -46 -4 -13 -2 -13 12 -2 28 24 81 18 127 -12 46 -31 48
-43 4 -25 -33 12 -141 4 -161 -13 -15 -12 -18 -68 -3 -68 5 0 20 11 34 25 14
14 32 25 40 25 26 0 123 -40 151 -62 25 -19 27 -26 23 -70 -4 -41 -12 -56 -47
-92 -34 -34 -39 -45 -27 -49 9 -4 24 -4 33 0 13 4 10 -3 -9 -24 -32 -34 -34
-40 -12 -45 14 -3 13 -7 -5 -30 l-21 -27 22 -3 c18 -3 12 -11 -43 -56 -35 -29
-75 -55 -87 -59 -33 -8 -256 66 -377 125 -55 27 -128 71 -163 97 -66 50 -83
52 -64 10 30 -66 12 -103 -107 -218 -65 -63 -93 -98 -101 -125 -14 -51 -19
-2012 -5 -2012 24 0 82 51 100 88 11 22 32 48 47 57 15 8 36 29 48 45 11 16
36 38 55 50 19 11 44 37 55 56 12 18 28 34 36 34 25 0 89 67 113 117 13 28 36
57 56 71 19 12 47 40 61 62 l27 41 24 -48 c67 -132 208 -270 416 -408 31 -21
57 -40 57 -42 0 -6 -151 -258 -202 -337 -21 -33 -38 -63 -38 -68 0 -13 62 -9
117 7 31 9 61 26 75 44 13 15 45 35 71 44 l47 16 0 -51 c0 -62 19 -103 70
-153 39 -38 40 -39 61 -19 12 10 35 39 51 63 22 36 28 56 28 103 l0 58 48 -18
c26 -10 62 -33 80 -50 21 -19 50 -34 83 -41 51 -11 99 -14 99 -7 0 3 -54 95
-121 206 -67 111 -119 203 -118 204 2 2 38 26 80 54 107 71 219 163 275 225
54 60 119 154 135 194 10 26 12 27 23 9 21 -35 77 -95 95 -101 10 -3 28 -28
41 -56 24 -50 89 -119 113 -119 7 0 21 -13 30 -30 10 -16 32 -39 50 -52 47
-33 139 -128 164 -169 17 -27 85 -79 104 -79 2 0 4 444 4 988 0 1147 13 1026
-120 1147 -101 91 -131 143 -120 211 8 53 12 54 -82 -18 -78 -58 -212 -124
-353 -173 -145 -50 -150 -49 -243 21 l-77 59 46 5 46 5 -34 19 c-68 39 -118
100 -118 146 0 23 40 65 70 73 10 3 30 -1 44 -8 22 -12 26 -11 31 6 10 30 -3
74 -29 98 -26 24 -84 38 -208 50 -112 11 -198 52 -289 139 -37 34 -69 62 -73
62 -3 0 -6 -15 -6 -33z m193 -141 c60 -31 89 -39 160 -45 47 -5 92 -13 99 -19
7 -5 30 -10 50 -9 43 1 78 -25 78 -58 0 -18 -5 -21 -27 -18 -39 6 -95 -34
-109 -77 -15 -44 -4 -73 44 -122 50 -52 2 -48 -55 5 -30 27 -29 8 2 -34 80
-110 86 -137 14 -61 -28 28 -53 52 -56 52 -5 0 -2 -24 13 -86 6 -29 6 -29 -26
9 -36 43 -50 46 -51 15 0 -13 -4 -32 -8 -43 -7 -18 -11 -15 -30 23 -25 49 -36
47 -52 -8 -7 -22 -15 -40 -19 -40 -4 0 -13 21 -20 48 l-12 47 -19 -27 c-11
-14 -28 -37 -39 -50 l-19 -23 -1 50 0 49 -45 -44 c-50 -49 -51 -49 -30 10 25
71 19 76 -35 26 -27 -25 -52 -46 -55 -46 -7 0 22 51 57 102 26 37 23 56 -4 31
-55 -49 -64 -36 -18 22 17 21 30 46 30 56 0 16 -3 17 -25 7 -35 -16 -40 -6
-16 33 21 34 28 109 15 144 -8 19 -50 42 -124 67 l-55 19 45 -5 c25 -3 92 -23
150 -45 138 -52 186 -59 233 -34 l36 20 -53 16 c-69 22 -141 71 -172 116 -40
59 -27 65 26 13 27 -27 83 -66 123 -86z m-434 -15 c-13 -11 -26 -17 -29 -14
-6 6 30 33 43 33 5 0 -1 -9 -14 -19z m221 -274 c0 -2 -10 -12 -22 -23 l-23
-19 19 23 c18 21 26 27 26 19z m-656 -112 c92 -51 260 -119 361 -144 l87 -23
41 28 c23 15 67 50 97 78 l54 51 -38 -52 c-21 -29 -36 -58 -34 -63 2 -6 27 6
56 25 28 20 52 34 52 32 0 -3 -7 -24 -15 -47 -8 -24 -13 -45 -10 -48 2 -3 29
16 60 42 l55 48 0 -41 c0 -23 4 -41 9 -41 5 0 25 18 45 40 22 25 38 36 40 28
3 -7 10 -30 16 -50 11 -37 29 -51 31 -25 0 6 8 29 17 50 l17 39 34 -48 c30
-41 36 -45 42 -28 4 10 8 32 8 48 l1 30 33 -30 c17 -17 41 -37 51 -45 18 -13
19 -12 12 16 -4 17 -10 39 -13 49 -5 18 -4 18 23 -1 16 -11 40 -26 53 -33 22
-11 23 -11 19 11 -3 13 -9 33 -14 44 -5 12 19 -2 66 -38 41 -32 85 -60 98 -64
59 -15 352 96 484 184 40 26 76 49 81 51 4 2 7 -12 7 -30 0 -47 43 -109 129
-186 110 -98 106 -82 109 -407 l2 -280 -44 47 c-30 33 -52 71 -71 123 -15 42
-30 74 -32 71 -2 -2 0 -27 5 -55 10 -58 5 -62 -43 -32 -17 10 -42 42 -57 73
-24 48 -28 67 -28 146 0 79 -2 93 -19 101 -10 6 -22 22 -25 37 -19 75 -166
174 -271 181 l-50 3 52 -15 c129 -36 209 -92 252 -175 28 -56 31 -71 31 -151
0 -81 -2 -89 -19 -89 -10 0 -21 -7 -25 -15 -7 -20 -39 -19 -59 3 -9 10 -30 48
-47 86 l-31 67 32 40 c17 22 29 46 26 53 -7 18 -197 113 -240 120 -17 3 -105
7 -194 8 -212 4 -173 -12 52 -21 l170 -7 93 -48 c50 -26 92 -52 92 -57 0 -5
-35 -57 -77 -114 l-78 -105 -665 3 -665 2 -72 105 c-83 120 -87 104 47 171 78
39 85 41 198 45 111 5 226 27 238 45 7 12 1 11 -33 -2 -15 -6 -91 -15 -168
-19 -119 -6 -150 -11 -205 -34 -80 -33 -170 -86 -170 -101 0 -6 13 -29 29 -51
l29 -39 -38 -81 c-37 -79 -63 -105 -84 -84 -16 16 -8 268 9 300 28 53 107 104
240 155 14 5 16 9 7 12 -20 7 -130 -35 -185 -71 -86 -56 -111 -113 -112 -256
l0 -86 -59 -66 c-32 -37 -72 -72 -89 -78 -17 -5 -31 -9 -33 -8 -1 2 2 25 7 52
5 27 7 51 5 53 -2 2 -13 -25 -26 -59 -26 -75 -75 -154 -102 -169 -20 -11 -20
-7 -16 273 3 240 6 288 20 313 9 17 51 61 92 98 83 75 116 126 116 182 l0 37
31 -26 c16 -14 59 -42 93 -61z m156 -582 c0 -54 -4 -93 -10 -93 -17 0 -32 127
-22 189 4 32 6 33 18 16 10 -13 14 -49 14 -112z m1529 22 c0 -51 -5 -89 -14
-105 -13 -23 -14 -15 -15 86 0 61 3 114 7 117 14 15 23 -21 22 -98z m-1487
-54 c-9 -85 -21 -79 -21 9 0 76 1 82 13 61 8 -15 11 -42 8 -70z m1435 2 c0
-55 -3 -81 -8 -70 -14 23 -22 102 -15 131 12 50 22 25 23 -61z m-1547 -83 c-6
-42 -15 -109 -20 -150 -6 -52 -7 -26 -3 85 3 88 10 171 16 185 11 25 11 25 15
-10 2 -19 -1 -69 -8 -110z m1659 5 l-1 -80 -13 40 c-8 22 -13 72 -13 110 0 67
0 69 13 40 9 -18 14 -62 14 -110z m-1762 6 c-3 -36 -12 -82 -21 -101 -16 -35
-17 -34 -14 70 4 111 13 147 31 115 5 -10 7 -47 4 -84z m833 90 c0 -5 -18 -11
-40 -15 -28 -4 -46 -15 -61 -35 -21 -28 -22 -29 -56 -14 -40 16 -85 10 -125
-18 -31 -23 -38 -24 -38 -5 0 8 -5 18 -11 22 -8 4 -9 -4 -4 -27 4 -19 9 -36
11 -38 1 -1 18 9 37 23 46 35 99 44 131 22 36 -23 50 -20 63 14 9 24 19 31 52
36 22 3 48 15 57 25 14 16 31 19 95 19 67 0 80 -3 89 -19 14 -26 13 -38 -2
-23 -16 16 -31 15 -25 0 2 -7 -3 -18 -11 -24 -13 -9 -12 -14 6 -32 l22 -22
-25 -22 c-13 -13 -39 -48 -57 -78 -18 -31 -43 -68 -55 -84 l-22 -28 -25 29
c-14 15 -33 43 -43 61 -27 49 -33 38 -13 -25 l18 -58 -97 -3 c-53 -2 -128 0
-168 3 l-72 7 -3 66 c-3 68 -5 68 -30 -1 -10 -27 -12 -28 -68 -21 l-56 6 9
-71 10 -71 61 0 c37 0 73 6 91 16 17 9 42 23 57 31 32 17 152 20 188 5 l25
-11 -30 -2 c-29 -2 13 -11 122 -25 42 -6 166 27 178 47 12 19 -16 49 -45 49
l-30 0 35 70 c39 77 55 90 103 83 27 -5 32 -2 32 16 0 15 6 21 21 21 18 0 20
2 8 16 -10 13 -10 17 2 25 8 5 22 9 32 9 11 0 17 5 14 13 -2 7 -19 12 -40 11
-32 -1 -35 1 -26 17 8 16 22 19 92 19 81 0 84 -1 105 -30 22 -30 55 -39 67
-20 3 6 -2 10 -13 10 -10 0 -27 9 -37 20 -18 20 -17 20 73 20 51 0 92 -3 92
-6 0 -3 -65 -75 -145 -159 l-146 -152 -79 -7 c-94 -9 -107 -26 -19 -26 53 0
60 -2 49 -15 -10 -12 -28 -13 -89 -8 -89 7 -91 -5 -2 -15 l61 -7 -41 -47 -41
-48 -394 0 -394 0 0 235 c0 129 2 235 4 235 2 0 23 -11 47 -24 40 -22 109 -41
109 -31 0 7 -101 55 -118 56 -14 0 -13 2 3 9 26 11 525 13 525 1z m280 1 c0
-5 -7 -17 -15 -28 -15 -19 -20 -8 -9 20 6 17 24 22 24 8z m800 -2 c0 -5 -2
-10 -4 -10 -3 0 -8 5 -11 10 -3 6 -1 10 4 10 6 0 11 -4 11 -10z m-845 -20 c3
-11 3 -24 0 -30 -8 -13 -5 -13 45 5 24 8 45 13 47 11 2 -2 -10 -9 -28 -15 -27
-9 -30 -13 -19 -26 10 -12 10 -15 -4 -15 -10 0 -16 -8 -16 -22 0 -21 0 -21
-14 -3 -12 17 -16 18 -31 5 -16 -14 -17 -13 -11 8 5 15 3 22 -5 22 -7 0 -3 9
9 20 18 17 20 25 12 40 -7 13 -7 20 -1 20 5 0 12 -9 16 -20z m810 -208 c-2 -2
-10 18 -19 44 -19 57 -21 155 -3 173 10 10 13 -10 18 -101 3 -62 5 -114 4
-116z m-65 133 c0 -65 -13 -93 -24 -52 -3 12 -6 45 -6 74 0 42 3 51 15 47 11
-5 15 -22 15 -69z m120 5 c0 -63 -11 -140 -20 -140 -8 0 -21 190 -13 203 12
20 33 -19 33 -63z m-1996 -100 c-5 -36 -8 -41 -15 -25 -13 33 -11 159 4 174
10 10 13 1 15 -46 2 -32 0 -78 -4 -103z m121 139 c9 -27 -4 -121 -16 -113 -12
7 -12 134 0 134 5 0 13 -9 16 -21z m-179 -124 c-4 -41 -13 -91 -21 -112 -13
-37 -14 -35 -14 63 -1 65 3 104 11 112 25 25 31 11 24 -63z m2112 63 c8 -8 12
-48 11 -117 l-1 -106 -14 45 c-18 57 -30 190 -17 190 5 0 14 -5 21 -12z m-340
-93 l0 -30 -8 30 c-4 17 -8 44 -8 60 l0 30 8 -30 c4 -16 8 -43 8 -60z m-1838
-30 c0 -58 -4 -105 -9 -105 -10 0 -26 184 -16 200 18 28 25 1 25 -95z m360 3
c0 -77 12 -108 26 -66 3 12 12 54 19 92 l13 71 1 -144 c1 -136 0 -146 -25
-190 -27 -49 -85 -104 -70 -65 4 10 10 106 13 212 4 110 10 188 14 180 5 -7 9
-48 9 -90z m27 40 c-2 -13 -4 -3 -4 22 0 25 2 35 4 23 2 -13 2 -33 0 -45z
m1495 -155 l4 -203 -24 23 c-50 46 -62 90 -61 237 1 110 3 125 10 80 4 -30 13
-69 20 -85 l12 -30 7 25 c5 14 8 59 9 100 1 44 5 70 10 65 5 -6 11 -101 13
-212z m358 112 c0 -111 -13 -140 -24 -52 -11 95 -8 157 9 157 12 0 15 -18 15
-105z m-686 -1063 c-25 -23 -59 -51 -75 -63 l-29 -20 0 542 0 543 73 75 72 76
3 -555 3 -555 -47 -43z m-1247 961 c-6 -203 -17 -245 -74 -289 l-36 -27 7 54
c3 30 9 124 13 209 7 193 22 239 22 73 1 -67 5 -124 10 -127 11 -7 30 74 37
159 16 190 28 161 21 -52z m1623 107 c0 -51 17 -175 27 -205 9 -24 20 62 23
170 2 109 18 49 20 -75 0 -58 5 -148 10 -200 5 -52 7 -96 5 -98 -10 -11 -57
36 -77 76 -20 42 -22 65 -26 227 -2 127 0 176 7 165 6 -8 11 -35 11 -60z
m-1990 -64 c-17 -121 -30 -128 -30 -18 0 73 4 98 18 117 16 22 17 22 20 3 2
-11 -2 -57 -8 -102z m2358 92 c9 -19 22 -208 14 -208 -10 0 -25 69 -31 143 -7
89 -3 104 17 65z m-339 -56 c-1 -66 -6 -60 -12 15 -2 29 0 50 5 47 4 -3 8 -31
7 -62z m-1778 -250 c-11 -123 -31 -182 -76 -222 l-28 -25 7 70 c3 39 9 148 13
243 3 95 10 175 15 178 4 3 8 -54 8 -125 0 -73 4 -131 9 -131 12 0 29 81 41
194 13 123 14 124 18 21 2 -49 -2 -141 -7 -203z m1867 165 c7 -63 17 -129 24
-148 l12 -34 8 40 c4 22 7 80 7 128 1 155 18 84 25 -105 3 -101 9 -208 12
-238 l6 -55 -36 37 c-47 50 -65 117 -72 268 -2 69 -6 146 -9 173 -2 26 -1 47
4 47 4 0 13 -51 19 -113z m-2173 -64 c-12 -63 -25 -33 -25 56 0 63 4 91 13 94
14 4 22 -96 12 -150z m2203 32 c0 -38 -1 -39 -8 -10 -4 17 -8 55 -8 85 l1 55
8 -45 c4 -25 7 -63 7 -85z m292 17 c0 -77 -3 -94 -12 -84 -8 8 -14 49 -16 103
-4 78 -2 88 12 83 13 -5 16 -23 16 -102z m-2223 -9 c-2 -21 -4 -4 -4 37 0 41
2 58 4 38 2 -21 2 -55 0 -75z m-80 -120 c-4 -133 -11 -204 -22 -243 -17 -56
-58 -120 -76 -120 -10 0 -4 376 7 448 8 51 26 27 24 -32 -7 -173 9 -209 30
-65 17 122 32 199 38 199 3 0 2 -84 -1 -187z m2112 39 c29 -173 40 -184 41
-39 0 71 4 117 10 117 6 0 10 -15 10 -34 0 -18 5 -124 10 -236 6 -111 8 -205
5 -208 -12 -12 -56 44 -76 97 -18 48 -22 84 -26 246 -3 105 -3 188 0 185 3 -3
14 -60 26 -128z m-2244 -369 c-5 -46 -14 -72 -36 -103 -16 -22 -33 -40 -38
-40 -11 0 -15 447 -5 473 15 41 24 9 24 -88 0 -58 4 -105 9 -105 5 0 14 46 20
103 7 56 15 118 19 137 9 45 15 -294 7 -377z m2366 315 c13 -136 20 -178 30
-178 5 0 9 39 9 88 0 98 8 141 21 120 5 -7 9 -123 9 -257 0 -269 0 -270 -58
-172 -27 46 -27 47 -30 271 -4 228 4 278 19 128z m-2404 -25 c-2 -16 -4 -3 -4
27 0 30 2 43 4 28 2 -16 2 -40 0 -55z m2430 5 c-2 -13 -4 -3 -4 22 0 25 2 35
4 23 2 -13 2 -33 0 -45z m-1919 -167 l-13 -56 -3 108 c-2 73 1 114 10 130 12
20 13 14 16 -52 2 -40 -3 -99 -10 -130z m864 122 c-3 -64 -6 -73 -23 -73 -18
0 -19 2 -4 30 22 43 18 54 -11 31 -29 -23 -44 -27 -44 -11 0 10 81 104 84 98
1 -2 0 -36 -2 -75z m553 -74 c5 -122 5 -123 -10 -74 -17 59 -21 225 -5 209 6
-6 13 -67 15 -135z m-1455 -6 c0 -67 -3 -94 -10 -87 -17 17 -25 151 -10 169 7
8 14 15 16 15 2 0 4 -44 4 -97z m761 27 c5 0 16 11 25 25 20 30 31 26 14 -4
-17 -32 -3 -45 27 -26 28 19 42 15 18 -5 -26 -22 -19 -43 13 -36 l27 6 -22
-19 c-30 -25 -29 -31 7 -31 17 0 30 -4 30 -10 0 -5 -11 -10 -24 -10 -35 0 -40
-16 -14 -35 l23 -17 -26 6 c-35 8 -42 -2 -23 -31 15 -24 15 -24 -5 -13 -28 14
-40 6 -34 -23 4 -20 3 -21 -10 -4 -20 24 -34 21 -45 -10 -9 -25 -11 -25 -11
-6 -1 33 -19 37 -42 11 l-20 -23 6 22 c10 35 -3 45 -33 25 l-27 -17 18 27 c24
37 22 41 -15 35 -33 -6 -33 -6 -10 10 31 21 28 43 -5 44 l-28 1 28 11 c31 12
35 31 10 43 -15 6 -13 8 10 13 l29 6 -24 30 -23 30 25 -18 c39 -27 54 -22 46
16 l-6 32 16 -25 c10 -14 19 -27 21 -30 7 -8 23 24 24 50 1 20 3 17 11 -12 6
-21 14 -38 19 -38z m745 -28 c-10 -121 -25 -123 -26 -3 0 94 1 102 16 90 14
-11 15 -26 10 -87z m-1569 -34 c-3 -51 -12 -113 -20 -138 -14 -43 -14 -40 -9
75 4 110 13 155 29 155 3 0 3 -42 0 -92z m1622 74 c8 -15 21 -255 13 -247 -8
8 -30 127 -36 193 -6 71 3 92 23 54z m-1673 -93 c-3 -34 -6 -82 -6 -107 0 -75
-17 -34 -23 54 -5 78 3 114 25 114 7 0 9 -20 4 -61z m1733 -88 c-1 -139 14
-316 36 -430 8 -40 15 -75 15 -77 0 -2 -7 -1 -15 3 -24 8 -71 83 -89 139 -14
43 -41 332 -32 341 2 2 13 -38 25 -89 36 -157 43 -144 36 71 -5 175 -4 193 10
181 13 -11 15 -36 14 -139z m-1802 17 c-4 -51 -13 -115 -21 -143 l-14 -50 -1
113 c-1 83 3 121 14 142 9 17 18 30 22 30 3 0 3 -42 0 -92z m1878 -75 c5 -126
5 -127 -11 -88 -10 25 -18 82 -21 150 -5 103 -4 109 11 88 12 -16 18 -54 21
-150z m-1939 -105 c-7 -220 -3 -231 35 -83 25 98 43 135 35 70 -3 -22 -8 -76
-11 -120 -10 -142 -47 -257 -95 -300 l-23 -20 7 27 c11 49 27 320 27 462 -1
126 6 166 26 166 3 0 2 -91 -1 -202z m1992 -10 c1 -187 14 -384 28 -424 6 -17
4 -16 -19 4 -33 31 -62 98 -80 192 -16 77 -33 260 -25 260 3 0 18 -48 34 -107
28 -106 28 -107 36 -68 4 22 4 112 1 200 -5 141 -4 159 9 148 12 -11 15 -47
16 -205z m-1755 69 c1 -5 11 12 21 39 33 93 35 93 35 -16 1 -130 -9 -166 -60
-221 l-40 -44 5 50 c3 28 9 113 13 190 7 130 8 136 15 76 4 -34 9 -68 11 -74z
m1530 -185 c4 -50 3 -52 -16 -39 -11 7 -34 38 -51 68 -28 48 -31 63 -32 139 0
47 3 99 6 115 6 28 7 27 19 -22 7 -28 19 -60 26 -70 13 -16 14 -12 15 39 0
117 15 89 22 -42 4 -74 8 -159 11 -188z m282 268 c11 -22 15 -60 14 -152 -1
-122 -1 -123 -15 -78 -15 46 -32 260 -21 260 4 0 13 -13 22 -30z m-2109 -77
c-4 -54 -13 -118 -21 -143 -13 -44 -14 -44 -14 72 -1 113 10 168 32 168 6 0 7
-36 3 -97z m1188 81 c14 -5 16 -46 16 -354 l0 -348 -80 -42 -81 -41 4 333 c4
310 9 398 26 398 4 0 16 -15 26 -32 l20 -33 3 43 c2 23 5 42 8 42 3 0 16 -7
30 -16 32 -21 41 -12 20 20 -23 36 -22 41 8 30z m-954 -244 c-12 -103 -42
-182 -84 -225 -37 -37 -46 -31 -30 23 8 26 22 124 32 217 16 166 17 168 24
102 3 -38 9 -71 12 -74 5 -5 30 75 43 142 8 38 8 37 11 -25 2 -36 -2 -108 -8
-160z m-296 3 c-7 -212 -1 -225 40 -73 l26 95 -5 -150 c-6 -178 -21 -241 -71
-293 l-35 -37 5 50 c3 28 8 167 12 310 6 273 7 285 24 285 7 0 8 -60 4 -187z
m2233 52 c-5 -97 2 -265 18 -449 l5 -60 -26 25 c-60 56 -84 154 -83 339 1 79
2 89 10 60 37 -135 41 -145 50 -125 4 11 5 94 2 185 -6 158 -5 164 12 150 16
-13 17 -27 12 -125z m-1311 -492 c-3 -3 -25 9 -49 26 -54 37 -54 35 -56 296
l-1 180 52 59 53 60 3 -309 c1 -169 0 -310 -2 -312z m1378 432 c4 -66 4 -116
0 -113 -15 16 -34 128 -33 203 0 72 1 78 13 55 7 -14 16 -78 20 -145z m-2364
-27 c-7 -38 -15 -70 -19 -72 -11 -7 0 218 13 239 9 17 12 11 14 -40 2 -33 -2
-90 -8 -127z m-51 -34 c-6 -76 -7 -159 -3 -184 l7 -45 13 40 c7 22 19 69 27
105 l15 65 1 -130 c1 -201 -25 -316 -81 -346 l-21 -11 7 308 c6 263 10 311 23
326 9 10 18 17 19 15 2 -2 -1 -66 -7 -143z m2477 -198 c7 -306 7 -308 -13
-298 -55 30 -74 100 -83 311 -4 97 -6 177 -5 179 2 2 10 -32 20 -75 9 -43 22
-96 28 -118 l12 -40 6 35 c3 19 3 105 1 190 -4 139 -3 153 11 140 13 -13 17
-66 23 -324z m-1420 -289 c-43 -77 -103 -192 -110 -212 -17 -47 25 14 88 130
36 66 66 115 66 109 0 -21 -131 -300 -147 -312 -22 -16 -91 -37 -99 -30 -7 8
209 367 219 361 4 -2 -4 -23 -17 -46z m417 -128 c60 -100 106 -184 103 -187
-9 -9 -86 18 -105 37 -20 20 -145 300 -137 308 2 3 23 -33 46 -78 50 -101 92
-169 103 -169 5 0 -24 61 -63 135 -39 74 -68 135 -63 135 4 0 57 -82 116 -181z
m-368 56 c-14 -43 -25 -82 -25 -88 0 -25 20 12 45 86 15 43 30 75 32 73 3 -3
-5 -47 -17 -100 l-21 -95 -46 -15 c-26 -9 -48 -16 -49 -16 -1 0 21 57 49 127
55 137 73 153 32 28z m255 -39 c26 -64 47 -116 46 -116 -1 0 -23 7 -48 16
l-46 15 -22 95 c-12 53 -20 98 -17 100 2 2 17 -31 32 -73 26 -74 45 -110 45
-87 0 6 -11 44 -25 84 -25 72 -30 99 -19 88 3 -3 27 -58 54 -122z m-154 -63
l9 -158 5 155 c3 95 9 154 15 153 16 -3 56 -172 58 -245 2 -59 -1 -71 -28
-110 -17 -23 -38 -44 -47 -46 -9 -2 -28 15 -47 44 -25 39 -31 58 -31 102 0 60
39 262 51 262 3 0 10 -71 15 -157z"/>
<path d="M2940 3981 l-25 -8 29 -12 c38 -15 81 -11 81 9 0 17 -46 23 -85 11z"/>
<path d="M2740 3442 c0 -11 28 -36 57 -51 18 -9 26 -7 52 15 17 14 31 30 31
35 0 16 -23 10 -47 -13 l-23 -21 -23 21 c-24 22 -47 29 -47 14z"/>
<path d="M2194 3340 c-53 -21 -43 -72 18 -92 60 -20 62 -40 4 -37 -49 3 -69
-6 -46 -21 20 -13 77 -12 101 0 22 13 25 52 5 69 -8 7 -27 16 -43 20 -43 11
-36 36 10 35 41 -1 52 20 15 30 -29 7 -38 7 -64 -4z"/>
<path d="M2638 3337 c-8 -7 -25 -29 -37 -49 -13 -21 -26 -38 -30 -38 -5 0 -19
20 -32 45 -14 27 -31 45 -41 45 -16 0 -18 -10 -18 -80 0 -63 3 -80 14 -80 11
0 16 14 18 48 l3 47 23 -37 c13 -21 28 -38 33 -38 5 0 20 17 32 38 l22 37 3
-47 c2 -33 8 -48 17 -48 10 0 14 21 17 81 2 45 0 83 -3 85 -3 2 -13 -2 -21 -9z"/>
<path d="M2320 3260 l0 -80 66 0 c48 0 65 3 62 13 -3 6 -23 13 -46 15 -34 3
-42 7 -42 23 0 16 7 19 41 19 52 0 48 24 -4 28 -29 3 -37 7 -37 23 0 16 7 19
40 19 22 0 40 5 40 10 0 6 -27 10 -60 10 l-60 0 0 -80z"/>
<path d="M2708 3260 c3 -61 7 -80 18 -80 8 0 14 10 14 24 0 22 5 25 42 28 34
2 45 8 57 29 13 24 13 29 -2 53 -15 23 -24 26 -75 26 l-57 0 3 -80z m96 40
c17 -16 -3 -40 -34 -40 -25 0 -30 4 -30 23 0 13 3 27 7 30 7 8 43 -1 57 -13z"/>
<path d="M2880 3260 l0 -80 60 0 c47 0 60 3 60 15 0 11 -12 15 -45 15 -38 0
-45 3 -45 20 0 17 7 20 40 20 29 0 40 4 40 15 0 11 -11 15 -40 15 -27 0 -40 4
-40 14 0 14 29 26 68 26 12 0 22 5 22 10 0 6 -27 10 -60 10 l-60 0 0 -80z"/>
<path d="M3030 3276 c0 -35 3 -71 6 -80 10 -25 34 -19 34 9 0 15 6 25 14 25 8
0 23 -11 34 -25 11 -14 27 -25 36 -25 19 0 21 11 5 27 -9 9 -8 21 5 48 16 33
16 38 2 61 -14 21 -24 24 -76 24 l-60 0 0 -64z m104 24 c17 -16 -3 -40 -34
-40 -25 0 -30 4 -30 23 0 13 3 27 7 30 7 8 43 -1 57 -13z"/>
<path d="M3280 3260 c0 -64 3 -80 15 -80 10 0 15 10 15 30 0 28 2 30 40 30 29
0 40 4 40 15 0 11 -11 15 -41 15 -36 0 -40 2 -37 23 2 18 10 23 46 25 64 5 50
22 -18 22 l-60 0 0 -80z"/>
<path d="M3430 3260 c0 -62 3 -80 14 -80 10 0 15 16 18 53 5 70 -1 107 -18
107 -11 0 -14 -18 -14 -80z"/>
<path d="M2458 2699 c20 -6 44 -6 65 0 28 8 24 9 -33 9 -57 0 -61 -1 -32 -9z"/>
<path d="M2355 2660 c-11 -5 -46 -9 -77 -9 -31 -1 -59 -5 -63 -11 -3 -5 24 -7
72 -4 43 3 107 5 143 5 62 0 63 1 25 10 -73 17 -80 17 -100 9z"/>
<path d="M2593 2663 c-39 -8 -25 -20 25 -22 78 -2 183 -3 246 -1 44 1 55 5 47
13 -7 7 -33 11 -64 9 -85 -6 -160 -6 -197 0 -19 4 -45 4 -57 1z"/>
<path d="M4085 4464 c-29 -23 -29 -24 -10 -38 11 -9 23 -16 26 -16 7 0 23 70
17 75 -2 2 -16 -8 -33 -21z"/>
<path d="M4712 1468 c-32 -32 1 -98 49 -98 21 0 49 32 49 57 0 42 -68 71 -98
41z"/>
<path d="M1149 1054 c-17 -21 0 -49 32 -49 27 0 37 28 19 50 -16 19 -34 19
-51 -1z"/>
<path d="M1420 815 c-12 -22 -11 -27 6 -40 24 -18 29 -18 48 0 18 18 11 41
-15 55 -24 13 -24 13 -39 -15z"/>
<path d="M1734 635 c-9 -23 3 -45 26 -45 25 0 28 45 4 54 -22 8 -24 8 -30 -9z"/>
<path d="M1887 557 c-7 -20 1 -27 30 -27 18 0 24 5 21 18 -4 21 -43 28 -51 9z"/>
<path d="M1850 481 c0 -22 37 -38 52 -23 17 17 1 42 -27 42 -18 0 -25 -5 -25
-19z"/>
<path d="M2034 467 c-18 -38 -14 -64 12 -74 25 -9 56 33 52 71 -2 23 -9 32
-25 34 -17 3 -27 -5 -39 -31z"/>
<path d="M2710 375 c-10 -12 -10 -18 0 -30 16 -19 34 -19 49 -1 9 11 8 18 -4
30 -20 20 -29 20 -45 1z"/>
<path d="M2890 380 c-13 -8 -13 -11 2 -26 14 -14 20 -15 33 -4 12 10 13 16 4
26 -13 16 -19 17 -39 4z"/>
<path d="M2880 291 c0 -24 25 -34 50 -21 27 15 14 40 -21 40 -22 0 -29 -5 -29
-19z"/>
<path d="M6315 3649 c-160 -27 -281 -116 -349 -259 -29 -62 -31 -71 -31 -185
0 -102 4 -129 24 -178 30 -75 121 -173 199 -215 145 -77 334 -83 478 -16 53
25 147 101 142 114 -2 4 -33 33 -71 64 l-67 57 -42 -36 c-106 -90 -278 -84
-376 13 -77 78 -101 217 -53 315 45 92 148 157 251 157 61 0 139 -29 180 -67
l40 -35 37 30 c21 17 53 46 71 65 l33 34 -43 37 c-107 92 -267 131 -423 105z"/>
<path d="M7225 3649 c-252 -42 -416 -258 -385 -504 15 -112 57 -193 143 -272
181 -167 498 -165 679 5 224 209 167 592 -109 727 -98 48 -214 63 -328 44z
m211 -197 c53 -27 107 -88 129 -145 26 -69 18 -189 -18 -249 -62 -107 -185
-151 -313 -113 -67 20 -117 64 -151 132 -73 151 -2 340 147 388 59 19 154 13
206 -13z"/>
<path d="M9886 3650 c-136 -22 -278 -125 -336 -244 -16 -34 -35 -94 -41 -134
-39 -243 120 -464 369 -513 133 -25 323 6 425 71 l47 30 -2 177 -3 178 -97 3
-98 3 0 -129 0 -129 -27 -13 c-48 -22 -164 -25 -224 -5 -76 25 -142 95 -165
171 -80 275 203 466 449 303 l47 -31 65 57 c36 31 65 60 65 65 0 12 -54 56
-103 84 -88 51 -248 75 -371 56z"/>
<path d="M11251 3644 c-290 -62 -447 -367 -326 -632 70 -153 254 -262 440
-262 282 1 485 191 485 455 0 303 -280 509 -599 439z m198 -180 c61 -18 123
-70 153 -128 26 -51 35 -160 19 -218 -30 -105 -120 -178 -231 -186 -111 -8
-202 41 -255 138 -25 48 -29 66 -30 135 0 65 4 89 23 125 31 59 58 87 107 112
80 42 131 47 214 22z"/>
<path d="M12705 3650 c-115 -21 -207 -71 -276 -149 -83 -94 -114 -192 -107
-338 3 -77 9 -101 37 -157 43 -87 112 -156 203 -200 92 -45 168 -60 283 -53
104 6 199 33 268 76 l47 31 0 180 0 180 -100 0 -100 0 0 -128 0 -129 -27 -13
c-39 -18 -160 -24 -210 -11 -60 16 -121 67 -157 131 -27 49 -31 64 -31 135 0
68 4 88 27 132 43 80 118 129 217 139 77 9 149 -10 212 -52 56 -39 54 -40 130
29 43 40 51 52 43 65 -20 32 -118 93 -182 112 -75 23 -206 33 -277 20z"/>
<path d="M13670 3650 c-157 -28 -277 -119 -343 -258 -31 -64 -32 -73 -32 -187
1 -152 20 -208 106 -299 188 -202 515 -211 720 -19 170 159 170 463 -1 634
-107 107 -285 158 -450 129z m194 -190 c34 -13 68 -35 90 -60 61 -68 71 -95
71 -195 0 -81 -3 -95 -29 -143 -52 -93 -148 -141 -261 -129 -90 9 -159 57
-203 141 -22 43 -27 64 -27 131 0 68 5 88 28 133 62 118 202 170 331 122z"/>
<path d="M17575 3650 c-209 -38 -353 -181 -385 -382 -29 -185 71 -383 232
-462 168 -82 411 -72 561 23 l47 31 0 180 0 180 -100 0 -99 0 -3 -127 -3 -128
-29 -14 c-47 -22 -156 -26 -212 -7 -176 58 -239 283 -121 437 86 114 265 130
405 35 l50 -33 63 63 63 64 -28 29 c-35 37 -114 80 -180 97 -67 18 -198 25
-261 14z"/>
<path d="M7940 3200 l0 -440 333 2 332 3 -1 65 c-1 36 -2 75 -3 88 l-1 22
-220 0 -220 0 0 350 0 350 -110 0 -110 0 0 -440z"/>
<path d="M8712 3203 l3 -438 353 -3 352 -2 0 85 0 85 -112 1 c-62 0 -173 0
-245 -1 l-133 -1 0 101 0 100 205 0 205 0 0 80 0 80 -205 0 -205 0 0 93 0 94
233 -1 232 -1 2 83 2 82 -345 0 -344 0 2 -437z"/>
<path d="M10520 3200 l0 -440 110 0 110 0 0 440 0 440 -110 0 -110 0 0 -440z"/>
<path d="M14394 3203 l1 -438 108 -3 107 -3 0 263 1 263 30 -35 c17 -19 90
-107 162 -195 72 -88 156 -190 187 -228 l55 -67 90 2 90 3 3 438 2 437 -110 0
-110 0 -2 -255 -3 -256 -210 255 -210 255 -96 0 -96 1 1 -437z"/>
<path d="M15370 3555 l0 -85 231 0 232 0 -24 -29 c-13 -17 -120 -144 -236
-283 l-213 -253 0 -72 0 -73 385 0 385 0 0 90 0 90 -244 2 -244 3 76 90 c41
50 147 174 234 277 l158 186 0 71 0 71 -370 0 -370 0 0 -85z"/>
<path d="M16531 3613 c-28 -59 -267 -595 -322 -721 l-58 -133 112 3 112 3 37
90 36 90 205 3 204 2 40 -92 40 -93 116 -3 116 -3 -25 58 c-30 66 -289 641
-340 751 l-33 72 -114 0 -114 0 -12 -27z m193 -342 c36 -84 66 -155 66 -157 0
-2 -61 -4 -136 -4 -75 0 -134 4 -132 8 36 92 132 312 134 309 1 -1 32 -71 68
-156z"/>
<path d="M18422 3503 c-33 -76 -119 -271 -191 -434 -72 -163 -131 -299 -131
-303 0 -3 48 -6 108 -6 l107 0 40 93 40 92 206 3 205 2 41 -92 40 -93 112 -3
c61 -1 111 1 111 6 0 4 -70 161 -155 348 -86 186 -175 381 -197 432 l-42 92
-116 0 -117 0 -61 -137z m249 -231 l66 -157 -105 -8 c-58 -5 -119 -5 -137 0
l-32 8 66 157 c36 87 68 158 71 158 3 0 35 -71 71 -158z"/>
<path d="M6396 2145 c-24 -38 -67 -109 -95 -157 -29 -49 -54 -88 -55 -88 -2 0
-46 70 -97 155 l-94 155 -57 0 -58 0 0 -255 0 -255 29 0 c16 0 42 -3 59 -6
l31 -6 3 153 3 154 74 -122 c69 -116 75 -123 105 -123 30 0 36 7 106 128 l75
127 5 -155 5 -155 55 0 55 0 0 63 c-1 34 -2 152 -3 261 l-2 200 -51 -2 -50 -2
-43 -70z"/>
<path d="M6980 2212 l-65 -3 -108 -242 c-60 -133 -111 -250 -114 -259 -5 -16
2 -18 59 -18 l65 0 20 53 20 52 114 7 c63 4 120 6 127 3 7 -3 24 -30 37 -60
l25 -55 65 0 c76 0 78 -22 -19 190 -37 80 -86 186 -109 235 -22 50 -43 92 -46
95 -4 3 -35 4 -71 2z m40 -192 c13 -30 29 -70 37 -87 l13 -33 -84 0 -85 0 28
68 c60 142 54 139 91 52z"/>
<path d="M7430 1953 l0 -263 60 0 60 0 0 75 0 75 58 0 58 0 50 -72 49 -73 68
-3 c37 -2 67 -1 67 2 0 2 -25 41 -56 86 l-56 81 40 37 c39 37 62 89 62 142 -1
39 -35 105 -66 127 -50 34 -65 37 -232 42 l-162 6 0 -262z m304 138 c34 -32
35 -80 2 -118 -23 -26 -29 -28 -103 -28 l-78 0 -3 74 c-4 105 -5 104 82 99 62
-3 79 -7 100 -27z"/>
<path d="M8841 2189 c-96 -48 -141 -122 -141 -231 1 -104 54 -194 145 -241 48
-24 171 -34 230 -18 41 11 125 66 125 81 0 5 -18 22 -40 40 l-39 31 -41 -27
c-31 -21 -53 -27 -93 -27 -93 0 -149 48 -163 140 -7 50 24 125 66 155 54 39
148 35 200 -9 l31 -26 39 38 c47 46 44 51 -43 95 -51 26 -72 30 -137 30 -66 0
-86 -4 -139 -31z"/>
<path d="M10020 1952 l0 -263 60 3 60 3 0 260 0 260 -60 0 -60 0 0 -263z"/>
<path d="M10345 2211 c-6 -5 -7 -506 -1 -512 2 -2 91 -2 198 1 177 5 196 7
229 27 43 27 59 59 59 120 0 39 -5 50 -39 84 -36 37 -37 39 -20 55 30 27 42
77 29 123 -11 44 -43 74 -93 90 -32 10 -354 21 -362 12z m319 -106 c24 -18 24
-64 0 -82 -12 -8 -48 -13 -106 -13 l-88 0 0 55 0 55 88 0 c59 -1 93 -5 106
-15z m-12 -195 c60 -17 73 -56 33 -95 -22 -23 -32 -25 -120 -25 l-95 0 0 65 0
65 73 0 c39 0 89 -5 109 -10z"/>
<path d="M11164 2210 c-61 -19 -128 -74 -156 -130 -23 -42 -28 -65 -28 -121 0
-83 18 -130 68 -182 54 -56 105 -79 188 -85 129 -8 235 44 287 142 31 58 31
184 0 241 -25 48 -75 96 -123 121 -41 20 -186 29 -236 14z m176 -112 c54 -28
80 -74 80 -141 0 -112 -93 -186 -198 -158 -55 15 -88 44 -107 96 -57 147 85
274 225 203z"/>
<path d="M8211 2168 c-10 -24 -62 -139 -115 -256 -53 -118 -96 -215 -96 -215
0 -1 31 -1 68 1 l68 3 17 50 18 49 125 0 124 0 23 -52 23 -52 59 3 c33 1 61 4
63 6 2 2 -31 79 -73 171 -42 93 -93 206 -113 252 l-36 82 -69 0 -68 0 -18 -42z
m130 -176 l37 -87 -75 -3 c-41 -2 -77 -1 -80 1 -2 3 13 46 33 96 20 51 39 89
42 86 3 -3 23 -45 43 -93z"/>
<path d="M9408 1973 c-59 -131 -110 -246 -114 -255 -5 -16 1 -18 60 -18 l65 0
17 49 18 48 89 7 c165 11 154 14 184 -54 l26 -60 63 0 c35 0 64 3 64 8 -1 4
-52 120 -115 257 l-114 250 -68 3 -68 3 -107 -238z m247 -53 c6 -19 1 -20 -74
-20 l-81 0 21 53 c11 28 29 72 40 97 l20 45 34 -78 c19 -43 37 -87 40 -97z"/>
</g>
</svg>
